<svg id="Layer_1" data-name="Layer 1" xmlns="http://www.w3.org/2000/svg" viewBox="0 0 90 90"><defs><style>.cls-1{fill:#fff;}</style></defs><path class="cls-1" d="M85.61,33.59,75.19,15.53A22.84,22.84,0,0,0,55.56,4.12c-8.25,4-16.42,7.6-24,12.56a16.6,16.6,0,0,1,6-1.12h15a16.43,16.43,0,0,1,14.24,8.22l1.63,2.83c1.83-4,3.75-7.94,5.37-12.1-1.62,4.16-3.54,8.12-5.37,12.1l5.88,10.17a16.44,16.44,0,0,1,.4,15.68,27,27,0,0,1,7.09,10.67l3.87-6.72A22.8,22.8,0,0,0,85.61,33.59Z"/><path class="cls-1" d="M1.33,44.64A22.85,22.85,0,0,0,4.38,56.41L14.8,74.47a22.77,22.77,0,0,0,6.73,7.3c1.83-3.43,5.39-6.55,8.25-9.26a16.38,16.38,0,0,1-6.53-6.29l-7.51-13a16.37,16.37,0,0,1-2.14-7C9.49,47.41,5.29,46.39,1.33,44.64Z"/><path class="cls-1" d="M4.38,33.59a22.75,22.75,0,0,0-3,11c4,1.75,8.16,2.77,12.27,1.61a16.45,16.45,0,0,1,2.14-9.47l.65-1.11c-3.3-3.87-3.52-9.5-4.85-14.49Z"/><path class="cls-1" d="M55.42,4.12H34.57A22.84,22.84,0,0,0,14.8,15.53l-3.26,5.65c1.33,5,1.55,10.62,4.85,14.49l6.86-11.89a16.43,16.43,0,0,1,8.28-7.1c7.61-5,15.78-8.59,24-12.56Z"/><path class="cls-1" d="M59.7,83.06c-.81-3.52-3-6.22-5.47-8.72a16.56,16.56,0,0,1-1.73.1h-15a16.41,16.41,0,0,1-7.71-1.93c-2.86,2.71-6.42,5.83-8.25,9.26a22.73,22.73,0,0,0,13,4.11H55.42a23.34,23.34,0,0,0,4.67-.48A5.94,5.94,0,0,0,59.7,83.06Z"/><path class="cls-1" d="M76.21,70.77a4.08,4.08,0,0,0-4.93-1.29L57.54,50.6l-1.37,1,8.88,12.2-3.42,2.64L50.8,51.77a4,4,0,1,0-1.37,1l11.51,15.6,0,0,.1.13,4.72-3.64,4.11,5.63a4.06,4.06,0,1,0,6.3.28ZM49.16,51a2.36,2.36,0,0,1-2.8-3.79A2.36,2.36,0,1,1,49.16,51Zm25.18,24.1a2.35,2.35,0,1,1-2.79-3.79,2.35,2.35,0,0,1,2.79,3.79Z"/><path class="cls-1" d="M59.77,26a4.06,4.06,0,0,0-7.29,3.46L35.93,39.55,36.82,41,53.37,30.9A4.06,4.06,0,0,0,59.77,26ZM54.3,29.33a2.35,2.35,0,1,1,3.24.78A2.34,2.34,0,0,1,54.3,29.33Z"/><path class="cls-1" d="M22.17,54.22a4.06,4.06,0,0,0,7.3-3.46l20-12-.89-1.45-20,12a4.06,4.06,0,0,0-6.41,4.91Zm5.48-3.35a2.36,2.36,0,1,1-3.24-.78A2.37,2.37,0,0,1,27.65,50.87Z"/></svg>